<?xml version="1.0" encoding="UTF-8" standalone="no"?>

<svg width="250" height="250" viewbox="0 0 250 250"
  xmlns="http://www.w3.org/2000/svg" version="1.1"
  xmlns:xlink="http://www.w3.org/1999/xlink"
  shape-rendering="geometricPrecision">

  <g id="arrow1">
    <path       
      d="M 10,70 L 40,70 Q 87.5,85 105,125 T 170,180 L 190,180"
      fill-opacity="0"
      stroke="white"
      stroke-width="45"
      stroke-linecap="round" />
    <path       
      d="M 10,70 L 40,70 Q 87.5,85 105,125 T 170,180 L 190,180"
      fill-opacity="0"
      stroke="#00b9d1"
      stroke-width="20"
      stroke-linecap="round" />
    <path
      d="M 190,225 L 190,135 L 250,180 Z"
      fill="#00b9d1" />
  </g>
  <g id="arrow2">
    <path       
      d="M 10,180 L 40,180 Q 87.5,165 105,125 T 170,70 L 190,70"
      fill-opacity="0"
      stroke="white"
      stroke-width="45"
      stroke-linecap="round" />
    <path       
      d="M 10,180 L 40,180 Q 87.5,165 105,125 T 170,70 L 190,70"
      fill-opacity="0"
      stroke="#00b9d1"
      stroke-width="20"
      stroke-linecap="round" />
    <path
     d="M 190,25 L 190,115 L 250,70 Z"
     fill="#00b9d1" />
  </g>
</svg>
